<svg width="135" height="46" viewBox="0 0 135 46" fill="none" xmlns="http://www.w3.org/2000/svg">
<rect width="135" height="46" fill="white"/>
<path d="M1.70538 0.413233C2.26899 0.166263 2.87294 0.0291463 3.48601 0.00896842C7.61688 0.00896842 11.7477 0.00896842 15.8687 0.00896842C19.11 -0.0862942 22.3296 0.578424 25.2795 1.95197C27.362 2.9282 29.2677 4.25657 30.9161 5.88091C34.1955 9.05907 36.2668 13.3186 36.7632 17.9053C39.8639 18.8679 42.5707 21.1899 43.8016 24.28C44.3646 25.7213 44.6351 27.2643 44.5965 28.8154C44.5842 31.1727 44.5965 33.5326 44.5965 35.89C44.5 37.7976 45.6961 39.5941 47.2737 40.5264C47.9125 40.8697 48.6148 41.0727 49.3352 41.1223C50.0556 41.1719 50.7783 41.067 51.4565 40.8144C53.4378 40.1297 54.9064 38.0528 54.7801 35.9001C54.7355 33.6792 54.9014 31.4481 54.6835 29.2373C53.4685 28.9207 52.3266 28.3631 51.3229 27.5961C50.3192 26.8292 49.4734 25.8681 48.8339 24.7677C47.9201 23.0697 47.3876 21.1293 47.5585 19.1863C47.7612 16.6647 48.8835 14.3125 50.7037 12.5942C51.3624 12.0513 52.0678 11.5702 52.8112 11.1566C57.0659 8.88258 62.9427 10.3607 65.4168 14.6257C67.7274 18.0493 67.3485 22.9636 64.7357 26.1093C63.7028 27.3073 62.4222 28.2565 60.9863 28.8886C60.5461 29.0098 60.1135 29.1583 59.691 29.3333C59.5697 31.6856 59.7331 34.0531 59.6143 36.408C59.5053 39.3439 58.0615 42.2445 55.6964 43.9475C54.3078 45.0185 52.668 45.6989 50.9409 45.9206C49.2138 46.1423 47.4599 45.8976 45.8546 45.2108C43.7363 44.3373 41.9901 42.7258 40.9263 40.6628C40.2177 39.3589 39.8365 37.8962 39.8168 36.4054C39.7599 33.6387 39.8168 30.872 39.7846 28.1079C39.726 27.0737 39.4086 26.072 38.8628 25.1984C38.317 24.3249 37.5609 23.6085 36.6667 23.1177C35.9737 27.3225 34.0119 31.2018 31.0548 34.2148C27.4118 37.785 22.4414 39.9756 17.3596 39.9756C12.6542 39.9992 7.94873 39.9992 3.24331 39.9756C2.4632 40.0236 1.7772 39.6294 1.12339 39.253C0.751717 38.8106 0.437113 38.3215 0.187264 37.7976C-0.13221 36.5924 0.0634374 35.3341 0.0213362 34.1062C0.0560078 32.3931 -0.0727726 30.6724 0.12535 28.9644C0.935178 28.0523 2.1784 28.3429 3.24579 28.3125C4.21491 28.2597 5.1868 28.3097 6.14581 28.4616C6.3687 28.7901 6.66341 29.1059 6.66093 29.538C6.77733 30.8013 6.67827 32.0646 6.72037 33.3077C10.1875 33.3254 13.6547 33.3077 17.1218 33.3229C18.7252 33.2516 20.3059 32.9101 21.8 32.3122C24.9707 31.0453 27.5553 28.6033 29.0364 25.4751C29.8035 23.8338 30.2165 22.0438 30.2477 20.2258C30.2789 18.4078 29.9275 16.6041 29.2172 14.9364C27.3301 10.1788 22.5306 6.83346 17.5131 6.70965C13.9122 6.63133 10.3089 6.70966 6.70551 6.67176C6.70551 8.117 6.77485 9.5673 6.61883 11.0075C5.9997 11.864 4.9125 11.6164 4.01104 11.6442C2.92384 11.6442 1.83416 11.667 0.749437 11.6038C0.546361 11.4067 0.340809 11.2096 0.135257 11.0201C-0.112397 9.29695 0.0956315 7.54345 0.0262885 5.80764C0.0733427 4.54431 -0.156975 3.24056 0.273942 2.01766C0.607648 1.36597 1.10073 0.813303 1.70538 0.413233ZM55.7533 15.2144L55.2135 15.3609C54.9138 15.5631 54.6092 15.7627 54.312 15.9673C53.7009 16.4408 53.2053 17.0521 52.8642 17.7534C52.5231 18.4547 52.3456 19.227 52.3456 20.01C52.3978 20.8197 52.6331 21.6061 53.0331 22.3075C53.4331 23.0089 53.987 23.6063 54.6513 24.0526C54.8395 24.1486 55.0302 24.2497 55.2184 24.3533C55.9433 24.6607 56.7262 24.7993 57.5102 24.7591C58.2942 24.7189 59.0595 24.5009 59.7505 24.1208C60.4625 23.6458 61.067 23.0213 61.5237 22.289C62.1046 21.1812 62.2802 19.8986 62.019 18.6708C61.5856 17.4707 60.8897 16.2831 59.7529 15.6591C59.1547 15.3015 58.489 15.077 57.7998 15.0004C57.1105 14.9238 56.4131 14.9967 55.7533 15.2144Z" fill="#0052A8"/>
<path d="M90.5635 10.4568C90.6353 8.86247 90.5635 7.26815 90.5981 5.67383C92.3317 5.72183 94.0876 5.71678 95.8335 5.67383C95.8335 7.27067 95.8459 8.86499 95.8335 10.4745C97.2576 10.4239 98.684 10.4543 100.111 10.4442C100.13 11.9601 100.125 13.4509 100.111 14.9542C98.6717 14.9871 97.2278 14.8658 95.7964 15.0351C95.893 17.7841 95.7964 20.5381 95.8583 23.2897C95.8963 23.6562 95.9907 24.0144 96.1382 24.3509C96.7397 24.6393 97.4041 24.7639 98.0668 24.7126C98.7296 24.6612 99.3679 24.4356 99.9198 24.0578C100.267 25.4575 100.004 26.9634 100.054 28.4061C97.6414 29.5558 94.5804 29.8767 92.2401 28.3859C91.6922 27.8578 91.2621 27.2154 90.9792 26.5026C90.6963 25.7898 90.5672 25.0231 90.6006 24.2548C90.5825 21.1656 90.5825 18.0738 90.6006 14.9795C89.8354 14.9517 89.0553 15.0225 88.3098 14.8153C88.4006 13.36 88.4122 11.9007 88.3445 10.4442C89.0808 10.4239 89.8205 10.4282 90.5635 10.4568Z" fill="#0052A8"/>
<path d="M75.0876 10.7195C76.4133 10.2232 77.8271 10.0191 79.2357 10.1205C80.6444 10.222 82.016 10.6268 83.2602 11.3082C84.2819 11.9159 85.2092 12.6755 86.0116 13.562C86.2469 13.7717 86.2593 14.2315 85.9299 14.3554C85.016 15.0224 84.07 15.649 83.2057 16.3893L82.4627 16.8946C81.8558 16.1235 81.0452 15.5457 80.1267 15.2296C79.2081 14.9135 78.2201 14.8723 77.2793 15.1108C76.6836 15.3291 76.1143 15.6165 75.5829 15.9674C73.9905 17.2079 73.2302 19.5047 73.941 21.4502C74.3298 22.7464 75.36 23.6787 76.4621 24.3558C78.2922 25.0861 80.5682 24.8612 81.9575 23.3452C82.1408 23.3452 82.3315 23.3452 82.5222 23.3452C83.4831 24.3912 84.6297 25.2377 85.6698 26.2003C85.5881 26.933 84.8278 27.2489 84.3375 27.6784C81.217 30.1368 76.6206 30.2328 73.307 28.1054C69.1736 25.5788 67.549 19.5527 69.9958 15.2776C71.0981 13.1809 72.9067 11.5619 75.0876 10.7195Z" fill="#0052A8"/>
<path d="M106.077 11.9776C107.305 11.0775 108.721 10.4781 110.213 10.2257C111.706 9.97332 113.235 10.0748 114.683 10.5222C116.06 10.9373 117.329 11.6631 118.394 12.6458C119.46 13.6285 120.296 14.8431 120.839 16.1996C121.666 18.2032 121.694 20.4823 121.174 22.5718C120.803 23.8283 120.19 24.9967 119.371 26.0088C118.553 27.0209 117.545 27.8564 116.406 28.4665C114.512 29.5681 112.248 29.7576 110.118 29.51C108.219 29.0982 106.384 28.2315 105.022 26.7939C103.935 25.7352 103.115 24.4241 102.632 22.9722C102.149 21.5204 102.017 19.9709 102.248 18.4559C102.53 15.8661 104.051 13.5289 106.077 11.9776ZM110.596 15.098C108.615 15.6311 106.956 17.5387 107.028 19.6864C106.691 22.4657 109.351 24.9191 111.981 24.7397C114.21 24.7675 116.258 22.923 116.634 20.6971C116.765 19.3807 116.582 17.9683 115.76 16.9071C115.159 16.1326 114.354 15.5504 113.438 15.2297C112.523 14.9089 111.536 14.8632 110.596 15.098Z" fill="#0052A8"/>
<path d="M132.023 10.6159C132.937 10.1636 133.972 10.1105 134.97 10.0474C135.035 11.9221 134.97 13.7969 134.995 15.6717C134.016 15.5458 133.022 15.7069 132.129 16.1359C131.236 16.565 130.481 17.2444 129.953 18.0948C129.113 19.5779 129.046 21.344 129.069 23.0116C129.088 25.0153 129.029 27.0214 129.121 29.0251C127.365 29.1287 125.606 29.0251 123.848 29.0655C123.813 23.1354 123.898 17.1902 123.806 11.2728L123.675 11.0555C125.042 11.0555 126.414 11.1111 127.776 10.9999C126.409 10.866 125.029 10.9999 123.66 10.9039L123.997 10.4415C125.703 10.4163 127.412 10.4188 129.121 10.4668C129.042 11.7115 129.051 12.9603 129.148 14.2037C129.678 12.7307 130.646 11.3814 132.023 10.6159Z" fill="#0052A8"/>
</svg>
