<svg width="82" height="27" viewBox="0 0 82 27" fill="none" xmlns="http://www.w3.org/2000/svg">
<path d="M1.03297 0.24255C1.37436 0.0975894 1.74018 0.0171076 2.11153 0.00526408C4.61365 0.00526408 7.11577 0.00526408 9.6119 0.00526408C11.5752 -0.050651 13.5253 0.33951 15.3122 1.14572C16.5736 1.71873 17.7279 2.49842 18.7263 3.45184C20.7127 5.31728 21.9673 7.81742 22.268 10.5096C24.1461 11.0746 25.7857 12.4376 26.5312 14.2513C26.8723 15.0973 27.0361 16.0029 27.0128 16.9134C27.0053 18.297 27.0128 19.6822 27.0128 21.0659C26.9543 22.1856 27.6788 23.24 28.6343 23.7872C29.0213 23.9887 29.4467 24.1079 29.883 24.137C30.3194 24.1661 30.7571 24.1046 31.168 23.9563C32.368 23.5544 33.2576 22.3353 33.1811 21.0718C33.1541 19.7682 33.2546 18.4587 33.1226 17.161C32.3866 16.9752 31.695 16.6479 31.087 16.1977C30.4791 15.7476 29.9668 15.1835 29.5794 14.5375C29.0259 13.5409 28.7033 12.402 28.8069 11.2615C28.9296 9.78148 29.6094 8.40081 30.7119 7.39227C31.1109 7.0736 31.5382 6.79118 31.9885 6.54842C34.5656 5.21369 38.1253 6.08126 39.6239 8.58463C41.0235 10.5941 40.7939 13.4786 39.2114 15.325C38.5857 16.0282 37.81 16.5853 36.9403 16.9564C36.6736 17.0275 36.4116 17.1147 36.1557 17.2174C36.0822 18.5981 36.1812 19.9877 36.1092 21.3699C36.0432 23.0932 35.1687 24.7957 33.7361 25.7953C32.895 26.4239 31.9018 26.8233 30.8557 26.9534C29.8095 27.0835 28.7472 26.9399 27.7748 26.5368C26.4917 26.024 25.434 25.0782 24.7897 23.8673C24.3604 23.102 24.1295 22.2435 24.1176 21.3684C24.0831 19.7445 24.1176 18.1206 24.0981 16.4981C24.0626 15.8911 23.8704 15.3031 23.5398 14.7904C23.2091 14.2776 22.7512 13.8572 22.2095 13.5691C21.7898 16.0371 20.6015 18.3141 18.8104 20.0826C16.6037 22.1781 13.5931 23.4639 10.5149 23.4639C7.6648 23.4778 4.81466 23.4778 1.96452 23.4639C1.492 23.4921 1.07648 23.2608 0.680456 23.0398C0.455326 22.7801 0.264765 22.4931 0.113428 22.1856C-0.0800812 21.4781 0.0384249 20.7396 0.0129237 20.0188C0.0339247 19.0133 -0.0440794 18.0034 0.0759265 17.0009C0.566451 16.4655 1.31949 16.636 1.96602 16.6182C2.55303 16.5872 3.14172 16.6165 3.72261 16.7057C3.85761 16.8985 4.03612 17.0839 4.03462 17.3375C4.10513 18.079 4.04512 18.8205 4.07062 19.5502C6.17073 19.5606 8.27083 19.5502 10.3709 19.5591C11.3421 19.5172 12.2996 19.3168 13.2046 18.9659C15.1251 18.2222 16.6906 16.7889 17.5878 14.9528C18.0524 13.9894 18.3026 12.9388 18.3215 11.8717C18.3404 10.8046 18.1275 9.74588 17.6973 8.76704C16.5542 5.97449 13.6471 4.01094 10.6079 3.93828C8.42684 3.8923 6.24423 3.93828 4.06162 3.91603C4.06162 4.76433 4.10363 5.61559 4.00912 6.46092C3.6341 6.96367 2.97557 6.81833 2.42954 6.83465C1.77101 6.83465 1.11098 6.84799 0.453945 6.81092C0.330939 6.69524 0.206433 6.57956 0.0819269 6.46834C-0.0680805 5.45691 0.0579254 4.42768 0.0159233 3.40883C0.0444247 2.66731 -0.0950822 1.90207 0.165931 1.18428C0.368061 0.801766 0.666727 0.477373 1.03297 0.24255ZM33.7706 8.93018L33.4436 9.01619C33.2621 9.13484 33.0776 9.252 32.8976 9.37212C32.5274 9.65004 32.2272 10.0088 32.0206 10.4205C31.814 10.8321 31.7065 11.2854 31.7065 11.745C31.7381 12.2203 31.8806 12.6819 32.1229 13.0936C32.3652 13.5053 32.7007 13.8558 33.1031 14.1178C33.2171 14.1742 33.3326 14.2335 33.4466 14.2943C33.8856 14.4747 34.3599 14.5561 34.8347 14.5325C35.3096 14.5089 35.7732 14.3809 36.1917 14.1579C36.623 13.8791 36.9892 13.5125 37.2658 13.0827C37.6177 12.4324 37.724 11.6796 37.5658 10.959C37.3033 10.2545 36.8817 9.5575 36.1932 9.19119C35.8308 8.98132 35.4277 8.84957 35.0101 8.80458C34.5926 8.7596 34.1702 8.8024 33.7706 8.93018Z" fill="white"/>
<path d="M54.8555 6.13771C54.899 5.20191 54.8555 4.26612 54.8766 3.33032C55.9266 3.3585 56.9902 3.35553 58.0477 3.33032C58.0477 4.2676 58.0552 5.2034 58.0477 6.14809C58.9102 6.11843 59.7743 6.13623 60.6383 6.1303C60.6503 7.02012 60.6473 7.89511 60.6383 8.77752C59.7668 8.79679 58.8922 8.72561 58.0252 8.82497C58.0837 10.4385 58.0252 12.055 58.0627 13.6701C58.0857 13.8852 58.1429 14.0954 58.2322 14.2929C58.5966 14.4622 58.999 14.5354 59.4004 14.5052C59.8019 14.4751 60.1885 14.3427 60.5228 14.1209C60.7328 14.9425 60.5738 15.8264 60.6038 16.6732C59.1428 17.348 57.2887 17.5363 55.8711 16.6613C55.5392 16.3513 55.2787 15.9743 55.1074 15.5559C54.936 15.1375 54.8578 14.6875 54.878 14.2366C54.867 12.4233 54.867 10.6086 54.878 8.79235C54.4145 8.77603 53.942 8.81756 53.4905 8.69595C53.5455 7.84177 53.5525 6.98524 53.5115 6.1303C53.9575 6.11843 54.4055 6.1209 54.8555 6.13771Z" fill="white"/>
<path d="M45.4818 6.29172C46.2848 6.00042 47.1411 5.8806 47.9944 5.94016C48.8476 5.99972 49.6784 6.2373 50.432 6.63727C51.0509 6.99397 51.6126 7.43981 52.0986 7.96014C52.2411 8.08323 52.2486 8.35314 52.0491 8.42581C51.4956 8.81733 50.9226 9.18512 50.399 9.61965L49.949 9.91626C49.5814 9.46361 49.0904 9.12448 48.534 8.93894C47.9776 8.7534 47.3792 8.72921 46.8093 8.86924C46.4485 8.99733 46.1037 9.16603 45.7818 9.37199C44.8172 10.1002 44.3567 11.4482 44.7872 12.5902C45.0228 13.351 45.6468 13.8982 46.3143 14.2957C47.4229 14.7243 48.8014 14.5923 49.643 13.7025C49.754 13.7025 49.8695 13.7025 49.985 13.7025C50.567 14.3164 51.2616 14.8132 51.8916 15.3783C51.8421 15.8084 51.3816 15.9937 51.0846 16.2459C49.1945 17.6889 46.4103 17.7452 44.4032 16.4965C41.8996 15.0135 40.9156 11.4764 42.3976 8.96712C43.0653 7.73646 44.1607 6.78617 45.4818 6.29172Z" fill="white"/>
<path d="M64.2521 7.03034C64.9964 6.50203 65.8537 6.15019 66.7577 6.00206C67.6616 5.85393 68.5879 5.91348 69.4648 6.17611C70.2993 6.41976 71.0677 6.84575 71.7132 7.42256C72.3587 7.99937 72.8648 8.71225 73.194 9.50849C73.6951 10.6845 73.7116 12.0222 73.3965 13.2487C73.1719 13.9862 72.8008 14.672 72.305 15.2661C71.8092 15.8601 71.1986 16.3505 70.5089 16.7086C69.3613 17.3552 67.9903 17.4665 66.7002 17.3211C65.5497 17.0794 64.4381 16.5707 63.6131 15.7269C62.9546 15.1055 62.458 14.3359 62.1654 13.4837C61.8729 12.6315 61.7931 11.7221 61.933 10.8328C62.104 9.31273 63.025 7.94092 64.2521 7.03034ZM66.9897 8.86189C65.7897 9.17481 64.7846 10.2945 64.8281 11.5551C64.6241 13.1864 66.2352 14.6264 67.8283 14.5212C69.1783 14.5375 70.4189 13.4548 70.6469 12.1483C70.7264 11.3756 70.6154 10.5466 70.1174 9.92374C69.7537 9.46915 69.2656 9.12741 68.7111 8.93916C68.1567 8.75092 67.5592 8.7241 66.9897 8.86189Z" fill="white"/>
<path d="M79.9683 6.23114C80.5219 5.96568 81.1489 5.93454 81.7534 5.89746C81.7924 6.99787 81.7534 8.09829 81.7684 9.1987C81.1753 9.12483 80.5732 9.21934 80.0324 9.47118C79.4916 9.72302 79.0344 10.1218 78.7143 10.6209C78.2057 11.4915 78.1652 12.5281 78.1787 13.5069C78.1907 14.683 78.1547 15.8605 78.2103 17.0365C77.1467 17.0974 76.0816 17.0365 75.0166 17.0603C74.9956 13.5796 75.0466 10.09 74.9911 6.61673L74.9116 6.48919C75.7396 6.48919 76.5707 6.52182 77.3957 6.45657C76.5677 6.37796 75.7321 6.45657 74.9026 6.40021L75.1066 6.12881C76.1401 6.11398 77.1752 6.11547 78.2103 6.14364C78.1628 6.87423 78.1683 7.60725 78.2267 8.33706C78.5478 7.47245 79.1343 6.6805 79.9683 6.23114Z" fill="white"/>
</svg>
