<svg width="53" height="52" viewBox="0 0 53 52" fill="none" xmlns="http://www.w3.org/2000/svg">
<circle cx="26.224" cy="26.0159" r="25.92" fill="#3CD856"/>
<path fill-rule="evenodd" clip-rule="evenodd" d="M32.2195 17.2879L27.9429 17.8989C27.2895 17.9922 26.7557 18.3036 26.3746 18.734L16.3961 28.7125C15.3839 29.7247 15.3838 31.3658 16.3961 32.3781L20.0617 36.0438C21.074 37.056 22.7151 37.056 23.7274 36.0438L33.7058 26.0653C34.1362 25.6841 34.4477 25.1503 34.541 24.497L35.1519 20.2204C35.3964 18.5098 33.93 17.0435 32.2195 17.2879ZM29.2258 23.214C29.7319 23.7201 30.5525 23.7201 31.0587 23.214C31.5648 22.7079 31.5648 21.8873 31.0587 21.3812C30.5526 20.8751 29.732 20.8751 29.2258 21.3812C28.7197 21.8873 28.7198 22.7079 29.2258 23.214Z" fill="white"/>
</svg>
