<svg width="53" height="52" viewBox="0 0 53 52" fill="none" xmlns="http://www.w3.org/2000/svg">
<circle cx="26.768" cy="26.0159" r="25.92" fill="#FF947A"/>
<path fill-rule="evenodd" clip-rule="evenodd" d="M16.4 18.24C16.4 15.377 18.721 13.056 21.584 13.056H29.36V18.24C29.36 21.1031 31.681 23.424 34.544 23.424H37.136V33.792C37.136 36.6551 34.8151 38.976 31.952 38.976H21.584C18.721 38.976 16.4 36.6551 16.4 33.792V18.24ZM21.584 24.72C20.8683 24.72 20.288 25.3003 20.288 26.016C20.288 26.7318 20.8683 27.312 21.584 27.312H24.176C24.8918 27.312 25.472 26.7318 25.472 26.016C25.472 25.3003 24.8918 24.72 24.176 24.72H21.584ZM21.584 29.904C20.8683 29.904 20.288 30.4843 20.288 31.2C20.288 31.9158 20.8683 32.496 21.584 32.496H26.768C27.4838 32.496 28.064 31.9158 28.064 31.2C28.064 30.4843 27.4838 29.904 26.768 29.904H21.584ZM32.8356 15.9057L32.6659 18.4511C32.6138 19.2335 33.2629 19.8826 34.0453 19.8305L36.5907 19.6608C37.7017 19.5867 38.2083 18.2386 37.4209 17.4512L35.0452 15.0755C34.2578 14.2881 32.9097 14.7947 32.8356 15.9057Z" fill="white"/>
</svg>
