<svg width="53" height="52" viewBox="0 0 53 52" fill="none" xmlns="http://www.w3.org/2000/svg">
<circle cx="26.312" cy="26.0159" r="25.92" fill="#FA5A7D"/>
<path fill-rule="evenodd" clip-rule="evenodd" d="M17.24 14.3521C15.8085 14.3521 14.648 15.5125 14.648 16.9441V35.0881C14.648 36.5196 15.8085 37.68 17.24 37.68H35.384C36.8155 37.68 37.976 36.5196 37.976 35.0881V16.9441C37.976 15.5125 36.8155 14.3521 35.384 14.3521H17.24ZM21.128 27.3121C21.128 26.5963 20.5478 26.0161 19.832 26.0161C19.1163 26.0161 18.536 26.5963 18.536 27.3121V32.4961C18.536 33.2118 19.1163 33.7921 19.832 33.7921C20.5478 33.7921 21.128 33.2118 21.128 32.4961V27.3121ZM26.312 22.1281C27.0278 22.1281 27.608 22.7083 27.608 23.4241V32.4961C27.608 33.2118 27.0278 33.7921 26.312 33.7921C25.5962 33.7921 25.016 33.2118 25.016 32.4961V23.4241C25.016 22.7083 25.5962 22.1281 26.312 22.1281ZM34.088 19.5361C34.088 18.8203 33.5078 18.2401 32.792 18.2401C32.0763 18.2401 31.496 18.8203 31.496 19.5361V32.4961C31.496 33.2118 32.0763 33.7921 32.792 33.7921C33.5078 33.7921 34.088 33.2118 34.088 32.4961V19.5361Z" fill="white"/>
</svg>
