<svg width="20" height="21" viewBox="0 0 20 21" fill="none" xmlns="http://www.w3.org/2000/svg">
<g clip-path="url(#clip0_6443_1651)">
<path d="M14.1762 20.496C12.7596 20.4946 11.364 20.1531 10.1069 19.5C6.29914 17.6649 3.16948 14.6727 1.16556 10.9516C0.556401 9.85299 0.172487 8.64393 0.0362919 7.39518C-0.0722462 6.61453 -0.0136835 5.81974 0.208111 5.06343C0.429906 4.30712 0.809873 3.60654 1.32284 3.00808C1.74068 2.54408 2.21802 2.13733 2.74248 1.79841C3.24712 1.47545 3.85562 1.35617 4.44487 1.46472C5.03412 1.57326 5.56014 1.90152 5.91652 2.38308C6.40452 3.01211 6.89655 3.63711 7.38859 4.26615C7.73957 4.71473 7.92485 5.27073 7.91309 5.84014C7.90133 6.40955 7.69326 6.95743 7.32406 7.39115L6.48517 8.38308C6.29896 8.56251 6.18133 8.80137 6.15261 9.05834C6.12389 9.31531 6.18588 9.57423 6.32789 9.79034C7.29498 11.6788 8.83334 13.214 10.7239 14.1774C10.9323 14.3005 11.1749 14.3529 11.4155 14.3268C11.6562 14.3006 11.8818 14.1973 12.0589 14.0323L13.0671 13.1815C13.5129 12.7918 14.0838 12.575 14.6759 12.5706C15.268 12.5662 15.842 12.7743 16.2936 13.1573C16.8744 13.6331 17.4753 14.0807 18.0682 14.5403C18.3269 14.7337 18.5442 14.9768 18.7075 15.2555C18.8707 15.5342 18.9765 15.8427 19.0186 16.1629C19.0607 16.483 19.0382 16.8084 18.9526 17.1198C18.8669 17.4311 18.7198 17.7222 18.5199 17.9758C18.129 18.4845 17.6915 18.9557 17.2131 19.3831C16.3712 20.1131 15.2907 20.5091 14.1762 20.496Z" fill="#737791"/>
<path d="M11.1595 0.5C15.7693 0.5 19.4676 3.79436 19.9476 8.1371C20.0992 9.4803 19.9292 10.8403 19.4515 12.1048C19.4238 12.2136 19.3737 12.3154 19.3044 12.4037C19.2351 12.4919 19.1481 12.5648 19.049 12.6175C18.9499 12.6703 18.8409 12.7018 18.729 12.71C18.617 12.7182 18.5046 12.703 18.3989 12.6653C18.2934 12.625 18.1977 12.563 18.1177 12.4833C18.0378 12.4036 17.9755 12.308 17.9348 12.2028C17.8941 12.0975 17.876 11.9848 17.8816 11.8721C17.8872 11.7594 17.9164 11.6491 17.9673 11.5484C18.5602 10.0254 18.5802 8.33908 18.0238 6.80242C17.6245 5.60117 16.9002 4.53393 15.9314 3.71901C14.9625 2.90408 13.7869 2.3733 12.5348 2.18548C11.3303 1.9747 10.0911 2.09455 8.94939 2.53226C8.84508 2.58506 8.73054 2.61456 8.6137 2.61872C8.49686 2.62288 8.3805 2.60159 8.27271 2.55633C8.16491 2.51107 8.06823 2.44293 7.98939 2.35661C7.91055 2.2703 7.85142 2.16788 7.81609 2.05645C7.75261 1.85914 7.77004 1.6447 7.86456 1.46023C7.95908 1.27576 8.12297 1.13634 8.32023 1.07258C9.22419 0.711485 10.1862 0.51748 11.1595 0.5Z" fill="#737791"/>
<path d="M12.801 7.68952H13.8375C14.386 7.68952 14.9385 7.68952 15.487 7.68952C15.7009 7.68952 15.9061 7.77448 16.0574 7.92572C16.2086 8.07696 16.2936 8.28209 16.2936 8.49597C16.2884 8.70634 16.2011 8.90632 16.0504 9.05322C15.8996 9.20013 15.6975 9.28232 15.487 9.28226C14.3335 9.28226 13.1801 9.28226 12.0266 9.28226C11.8127 9.28226 11.6075 9.19729 11.4563 9.04606C11.305 8.89482 11.22 8.68969 11.22 8.47581C11.22 7.1129 11.22 5.75403 11.22 4.39113C11.2167 4.28431 11.2352 4.17794 11.2746 4.07858C11.3139 3.97922 11.3732 3.88898 11.4488 3.81341C11.5244 3.73784 11.6146 3.67856 11.714 3.63922C11.8134 3.59988 11.9198 3.58132 12.0266 3.58468C12.1314 3.58404 12.2353 3.60468 12.3319 3.64534C12.4284 3.68601 12.5158 3.74586 12.5885 3.82125C12.6613 3.89665 12.718 3.98604 12.7552 4.084C12.7924 4.18195 12.8094 4.28644 12.805 4.39113C12.805 5.39516 12.805 6.40726 12.805 7.40726L12.801 7.68952Z" fill="#737791"/>
</g>
<defs>
<clipPath id="clip0_6443_1651">
<rect width="20" height="20" fill="white" transform="translate(0 0.5)"/>
</clipPath>
</defs>
</svg>
