<svg width="21" height="20" viewBox="0 0 21 20" fill="none" xmlns="http://www.w3.org/2000/svg">
<g clip-path="url(#clip0_6443_1619)">
<path d="M12.5703 0H19.2891C19.6266 0.105859 19.9613 0.234375 20.1621 0.539844C20.3051 0.756641 20.3895 1.01172 20.5 1.25V10.4297C20.4917 10.4395 20.4847 10.4504 20.4793 10.4621C20.2379 11.3016 19.7484 11.6699 18.8711 11.6699C16.8919 11.6699 14.9128 11.6691 12.9336 11.6676C12.7646 11.6706 12.5959 11.653 12.4313 11.6152C11.7484 11.4422 11.3305 10.873 11.3297 10.123C11.3279 8.29414 11.3279 6.4651 11.3297 4.63594C11.3297 3.60078 11.3273 2.56563 11.3297 1.53086C11.332 0.851953 11.6813 0.324609 12.275 0.0964844C12.3723 0.059375 12.4723 0.0320312 12.5703 0Z" fill="white"/>
<path d="M0.5 18.7891V9.57031C0.507566 9.55969 0.513982 9.5483 0.51914 9.53633C0.770703 8.69102 1.25195 8.33008 2.12969 8.33008C4.12135 8.33008 6.11354 8.33008 8.10625 8.33008C9.05391 8.33008 9.66875 8.94687 9.66875 9.89609C9.6707 10.6707 9.66875 11.4453 9.66875 12.2199V18.4492C9.66875 19.0852 9.4043 19.566 8.8293 19.8555C8.70352 19.9187 8.5625 19.952 8.42851 19.9992H1.74883C1.28789 19.8895 0.906248 19.6648 0.678905 19.2332C0.605467 19.0945 0.559375 18.9383 0.5 18.7891Z" fill="white"/>
<path d="M8.42969 -3.09944e-06C8.67227 0.117184 8.94024 0.20195 9.15196 0.361325C9.51641 0.634763 9.66719 1.03906 9.66875 1.49179C9.67188 2.72187 9.67774 3.95273 9.66875 5.18203C9.66133 6.03906 9.04375 6.6625 8.18438 6.6664C6.12136 6.6763 4.05821 6.6763 1.99493 6.6664C1.26094 6.66406 0.719142 6.22461 0.537501 5.51836C0.527726 5.48763 0.515848 5.45761 0.501953 5.42851V1.20976C0.526172 1.14414 0.551566 1.0789 0.573832 1.0125C0.632666 0.822345 0.731003 0.646766 0.862404 0.497256C0.993805 0.347747 1.1553 0.22768 1.33633 0.144919C1.45781 0.0874969 1.58711 0.0468719 1.71289 -0.00117493L8.42969 -3.09944e-06Z" fill="white"/>
<path d="M12.5703 20C12.4309 19.9492 12.2844 19.9121 12.1531 19.8457C11.6234 19.5773 11.3434 19.1336 11.3352 18.5477C11.3223 17.2914 11.318 16.0352 11.3352 14.7789C11.3473 13.9367 11.9828 13.3367 12.8367 13.3336C14.334 13.327 15.8309 13.3316 17.3289 13.3316C17.8625 13.3316 18.3961 13.3316 18.9305 13.3316C19.7438 13.3336 20.2637 13.7355 20.4727 14.5211C20.48 14.539 20.4893 14.556 20.5004 14.5719V18.7516C20.3984 18.9789 20.3223 19.223 20.1879 19.4293C19.9723 19.7605 19.623 19.909 19.2504 20.0016L12.5703 20Z" fill="white"/>
</g>
<defs>
<clipPath id="clip0_6443_1619">
<rect width="20" height="20" fill="white" transform="translate(0.5)"/>
</clipPath>
</defs>
</svg>
