<svg width="24" height="25" viewBox="0 0 24 25" fill="none" xmlns="http://www.w3.org/2000/svg">
<g clip-path="url(#clip0_6420_2531)">
<path d="M12.8333 2.49664H6.16667C3.86917 2.49664 2 4.36581 2 6.66331V17.375C2 18.0358 2.3625 18.6408 2.945 18.9533C3.21 19.0958 3.50083 19.1658 3.79083 19.1658C4.1375 19.1658 4.48333 19.065 4.78333 18.8658L8.08583 16.6633H12.8333C15.1308 16.6633 17 14.7941 17 12.4966V6.66331C17 4.36581 15.1308 2.49664 12.8333 2.49664ZM22 9.99664V20.7083C22 21.3691 21.6375 21.9741 21.055 22.2866C20.79 22.4291 20.4992 22.4991 20.2092 22.5C19.8625 22.5 19.5167 22.3991 19.2175 22.2L15.9142 19.9966H11.1667C9.95833 19.9966 8.8775 19.4708 8.11583 18.6466L8.59 18.33H12.8333C16.0492 18.33 18.6667 15.7125 18.6667 12.4966V6.66331C18.6667 6.40664 18.6442 6.15664 18.6125 5.90831C20.5383 6.27498 22 7.96581 22 9.99664Z" fill="#737791"/>
</g>
<defs>
<clipPath id="clip0_6420_2531">
<rect width="20" height="20" fill="white" transform="translate(2 2.5)"/>
</clipPath>
</defs>
</svg>
