<svg width="24" height="25" viewBox="0 0 24 25" fill="none" xmlns="http://www.w3.org/2000/svg">
<path d="M17.9401 22.5202H5.964C5.53811 22.4583 5.15128 22.2377 4.88109 21.9026C4.61089 21.5674 4.47731 21.1425 4.50696 20.7129C4.50696 19.6246 4.50696 18.5362 4.50696 17.4478V4.24766C4.49305 4.01702 4.52717 3.78602 4.60722 3.56929C4.68727 3.35256 4.81139 3.15485 4.97185 2.98868C5.13231 2.82251 5.32558 2.69151 5.53932 2.60401C5.75305 2.5165 5.98264 2.47434 6.2135 2.48029C9.08776 2.48029 11.962 2.48029 14.8463 2.48029C14.9976 2.48169 15.1432 2.53856 15.2555 2.64008C16.6261 3.97142 17.9833 5.32934 19.3273 6.71393C19.4316 6.82528 19.492 6.97081 19.497 7.12335C19.497 11.6765 19.497 16.2263 19.497 20.7729C19.5016 21.1753 19.3597 21.5658 19.0978 21.8712C18.8088 22.2275 18.3946 22.4597 17.9401 22.5202ZM8.59875 10.019V11.1473C8.59875 11.5367 8.74848 11.6865 9.12772 11.6865H10.495C10.964 11.6865 11.0938 11.5567 11.0938 11.0874C11.0938 10.6181 11.0938 10.3885 11.0938 10.019H12.2913C12.5608 10.019 12.7405 9.87923 12.7505 9.63959C12.7505 9.06046 12.7505 8.48128 12.7505 7.90215C12.7492 7.8128 12.7164 7.72681 12.658 7.65923C12.5996 7.59164 12.5192 7.54681 12.431 7.53271C12.3415 7.52273 12.2511 7.52273 12.1616 7.53271H11.0938C11.0938 7.13331 11.0938 6.77385 11.0938 6.41439C11.0938 6.05493 10.944 5.86522 10.5448 5.85523H9.11773C8.75845 5.85523 8.60873 6.01501 8.59875 6.37447V7.53271H7.44103C7.37146 7.52038 7.29997 7.52507 7.23258 7.5463C7.16519 7.56753 7.10395 7.60467 7.05399 7.65466C7.00403 7.70464 6.96678 7.76598 6.94556 7.8334C6.92434 7.90083 6.91972 7.97235 6.93204 8.04195V9.50978C6.93204 9.86925 7.09175 10.029 7.46101 10.029L8.59875 10.019ZM8.17954 15.8502C8.50868 15.8503 8.82449 15.7202 9.05816 15.4882C9.29182 15.2563 9.42442 14.9414 9.42705 14.6121C9.42706 14.2802 9.29597 13.9617 9.0623 13.726C8.82863 13.4903 8.51132 13.3566 8.17954 13.354C7.84777 13.3566 7.53046 13.4903 7.29679 13.726C7.06312 13.9617 6.93203 14.2802 6.93204 14.6121C6.93328 14.7786 6.96787 14.9431 7.03364 15.0961C7.09941 15.249 7.1951 15.3872 7.31506 15.5026C7.43503 15.6179 7.57686 15.7081 7.7322 15.7679C7.88753 15.8276 8.05319 15.8556 8.2195 15.8502H8.17954ZM8.17954 20.014C8.50789 20.0114 8.82224 19.8805 9.05536 19.6491C9.28847 19.4178 9.42185 19.1043 9.42705 18.7759C9.42706 18.4439 9.29597 18.1254 9.0623 17.8897C8.82863 17.6541 8.51132 17.5204 8.17954 17.5177C7.8512 17.5203 7.53697 17.6513 7.30385 17.8827C7.07074 18.114 6.93724 18.4274 6.93204 18.7559C6.93199 18.9237 6.96554 19.0898 7.0306 19.2444C7.09565 19.399 7.19096 19.539 7.31092 19.6562C7.43088 19.7735 7.57299 19.8655 7.72903 19.927C7.88507 19.9884 8.05186 20.018 8.2195 20.014H8.17954ZM14.0378 18.3465H11.6825C11.5863 18.3362 11.4893 18.3362 11.3931 18.3465C11.3104 18.3701 11.2376 18.4198 11.1855 18.4882C11.1333 18.5566 11.1047 18.6399 11.1037 18.7259C11.0979 18.8144 11.1224 18.9022 11.1732 18.9748C11.224 19.0475 11.2982 19.1006 11.3832 19.1254C11.4728 19.1352 11.563 19.1352 11.6526 19.1254H16.3732C16.7225 19.1254 16.9221 18.9755 16.9221 18.7059C16.9221 18.4364 16.7224 18.2966 16.3831 18.2866H14.0378V18.3465ZM14.0378 14.1928H11.7723C11.6695 14.1826 11.5659 14.1826 11.463 14.1928C11.3752 14.2037 11.2936 14.2443 11.2319 14.3078C11.1702 14.3714 11.1321 14.454 11.1237 14.5422C11.11 14.6342 11.1296 14.728 11.179 14.8068C11.2285 14.8855 11.3043 14.944 11.3931 14.9716C11.489 14.9869 11.5867 14.9869 11.6825 14.9716H16.473C16.5318 14.9771 16.591 14.9704 16.6471 14.9519C16.7032 14.9335 16.7549 14.9036 16.7989 14.8642C16.8429 14.8249 16.8784 14.7768 16.9031 14.7232C16.9277 14.6695 16.9409 14.6113 16.942 14.5522C16.9408 14.4954 16.928 14.4394 16.9045 14.3876C16.881 14.3358 16.8472 14.2894 16.8052 14.2511C16.7632 14.2128 16.714 14.1835 16.6603 14.1648C16.6066 14.1462 16.5497 14.1387 16.493 14.1428H14.0378V14.1928ZM17.9001 6.68401L15.2753 4.05794C15.2753 4.6171 15.2753 5.22617 15.2753 5.84524C15.2711 5.95651 15.29 6.0675 15.3306 6.17116C15.3713 6.27483 15.4329 6.36893 15.5116 6.44767C15.5903 6.5264 15.6844 6.58807 15.788 6.62873C15.8916 6.66939 16.0025 6.68821 16.1137 6.68401C16.7525 6.70398 17.3712 6.68401 17.9401 6.68401H17.9001Z" fill="#737791"/>
</svg>
