<svg width="24" height="25" viewBox="0 0 24 25" fill="none" xmlns="http://www.w3.org/2000/svg">
<path d="M9.92427 2.50623H14.0678C14.2621 2.56721 14.4334 2.68819 14.5581 2.85266C14.6828 3.01713 14.7549 3.21707 14.7647 3.42515C14.8362 4.08924 14.9493 4.74948 15.0397 5.41357C15.0427 5.46384 15.0591 5.51228 15.0869 5.55377C15.1148 5.59525 15.1531 5.6282 15.1979 5.64909C15.5369 5.83828 15.8721 6.03518 16.2036 6.24754C16.2431 6.27665 16.2895 6.29419 16.338 6.29828C16.3864 6.30236 16.435 6.29282 16.4786 6.2707L18.362 5.4985C18.4672 5.44275 18.5825 5.40959 18.7006 5.40108C18.8188 5.39257 18.9374 5.40889 19.0492 5.44902C19.161 5.48914 19.2636 5.55223 19.3508 5.63443C19.4379 5.71663 19.5078 5.81621 19.5561 5.92707C20.1513 6.98241 20.7452 8.03517 21.3378 9.08537C21.4082 9.18687 21.4577 9.30206 21.4832 9.42384C21.5087 9.54563 21.5096 9.67146 21.486 9.79363C21.4624 9.91581 21.4147 10.0318 21.3458 10.1344C21.2769 10.237 21.1883 10.3241 21.0854 10.3904C20.5581 10.8112 20.0345 11.236 19.5071 11.6529C19.4658 11.6803 19.4328 11.7191 19.4122 11.7649C19.3915 11.8107 19.3839 11.8616 19.3904 11.9116C19.3904 12.2977 19.3904 12.707 19.3904 13.1008C19.3837 13.1544 19.3918 13.2089 19.4138 13.258C19.4358 13.3071 19.4707 13.349 19.5147 13.3788C20.0471 13.7984 20.5769 14.2231 21.1043 14.653C21.2017 14.7185 21.2855 14.8031 21.3508 14.902C21.4161 15.0009 21.4616 15.1121 21.4848 15.2291C21.5079 15.3462 21.5081 15.4668 21.4855 15.5839C21.4629 15.7011 21.4178 15.8125 21.3529 15.9116C20.7552 16.9773 20.155 18.0416 19.5523 19.1047C19.503 19.215 19.4322 19.3139 19.3443 19.3953C19.2564 19.4766 19.1532 19.5387 19.0411 19.5778C18.9289 19.6168 18.8102 19.6319 18.6921 19.6223C18.5741 19.6127 18.4592 19.5784 18.3545 19.5217L16.4711 18.7495C16.4267 18.7223 16.3759 18.7079 16.3241 18.7079C16.2724 18.7079 16.2216 18.7223 16.1772 18.7495C15.8457 18.9618 15.5105 19.1587 15.1753 19.3479C15.1329 19.3669 15.0964 19.3975 15.0698 19.4363C15.0433 19.4751 15.0276 19.5207 15.0246 19.568C14.9304 20.2514 14.8287 20.9348 14.7383 21.6182C14.7341 21.7408 14.7057 21.8613 14.6548 21.9724C14.6039 22.0834 14.5315 22.1828 14.4421 22.2643C14.3526 22.3459 14.248 22.408 14.1344 22.4469C14.0209 22.4859 13.9008 22.5008 13.7815 22.4908H10.1992C10.0801 22.5008 9.96025 22.4858 9.84692 22.4469C9.7336 22.4079 9.62918 22.3458 9.54004 22.2641C9.4509 22.1825 9.37889 22.0831 9.32838 21.9721C9.27787 21.8611 9.24992 21.7407 9.24624 21.6182C9.15207 20.9348 9.05036 20.2514 8.95995 19.568C8.95576 19.521 8.93964 19.476 8.91321 19.4374C8.88678 19.3988 8.85094 19.3679 8.80927 19.3479C8.46649 19.1549 8.13125 18.9425 7.7847 18.7495C7.70644 18.7094 7.61629 18.7011 7.53232 18.7263C6.89949 18.9773 6.27043 19.2437 5.6489 19.4985C5.54432 19.5558 5.42936 19.5905 5.31116 19.6005C5.19296 19.6104 5.07404 19.5954 4.96174 19.5563C4.84945 19.5172 4.74618 19.4549 4.65833 19.3732C4.57048 19.2915 4.49991 19.1923 4.45102 19.0815C3.85209 18.0275 3.25318 16.9657 2.65802 15.9078C2.58899 15.8071 2.54065 15.6932 2.51593 15.5728C2.49122 15.4524 2.49065 15.3281 2.51425 15.2075C2.53786 15.0869 2.58513 14.9724 2.65324 14.8711C2.72134 14.7698 2.80883 14.6838 2.91039 14.6182C3.43398 14.1973 3.95758 13.7726 4.4887 13.3556C4.53135 13.3256 4.56516 13.2842 4.58641 13.2359C4.60767 13.1875 4.61556 13.1341 4.60924 13.0815C4.60924 12.6954 4.60924 12.2861 4.60924 11.8923C4.61597 11.8417 4.60855 11.7902 4.58789 11.7437C4.56722 11.6973 4.53415 11.6578 4.49247 11.6298C3.96888 11.2167 3.45282 10.7997 2.93299 10.3827C2.82613 10.3163 2.73386 10.2279 2.66199 10.1232C2.59013 10.0184 2.54025 9.89949 2.51547 9.77396C2.4907 9.64843 2.49157 9.51901 2.51805 9.39384C2.54453 9.26868 2.59603 9.1505 2.66931 9.04677L4.43219 5.9232C4.48164 5.80951 4.5533 5.70741 4.64274 5.62319C4.73218 5.53897 4.83749 5.47444 4.9522 5.43356C5.06691 5.39267 5.18859 5.3763 5.30971 5.38548C5.43083 5.39466 5.54882 5.4292 5.65642 5.48693L7.53984 6.25913C7.58387 6.28201 7.63321 6.29195 7.68241 6.28786C7.73161 6.28377 7.77873 6.2658 7.81859 6.23594C8.1463 6.03131 8.48156 5.84985 8.82058 5.64136C8.86505 5.62013 8.90317 5.58709 8.93098 5.54568C8.9588 5.50427 8.9753 5.456 8.97878 5.40584C9.05789 4.81125 9.13698 4.21666 9.23115 3.62593C9.25959 3.38965 9.31523 3.15765 9.3969 2.93479C9.47223 2.70313 9.71332 2.60661 9.92427 2.50623ZM15.2318 12.5139C15.2338 11.6319 14.8941 10.7852 14.2874 10.1597C13.6807 9.53416 12.8565 9.18112 11.996 9.17805C11.5701 9.17602 11.148 9.25997 10.7537 9.42516C10.3595 9.59035 10.0009 9.83352 9.69829 10.1408C9.39572 10.448 9.15516 10.8134 8.99035 11.2159C8.82553 11.6185 8.73967 12.0504 8.7377 12.4869C8.73472 12.9251 8.81628 13.3596 8.9777 13.7653C9.13912 14.1711 9.37722 14.5401 9.67828 14.8512C9.97935 15.1623 10.3374 15.4093 10.732 15.578C11.1265 15.7468 11.5497 15.8339 11.9772 15.8344C12.4041 15.8359 12.8271 15.7513 13.2221 15.5852C13.6171 15.4192 13.9763 15.175 14.2792 14.8667C14.5821 14.5583 14.8228 14.1919 14.9875 13.7882C15.1523 13.3845 15.2378 12.9515 15.2393 12.5139H15.2318Z" fill="#737791"/>
</svg>
