<svg width="24" height="25" viewBox="0 0 24 25" fill="none" xmlns="http://www.w3.org/2000/svg">
<g clip-path="url(#clip0_6420_2540)">
<path d="M12.974 19.7662V20.1115C12.9758 20.557 12.8568 20.9943 12.6301 21.3752C12.4035 21.756 12.0779 22.0656 11.6895 22.2698C11.4591 22.4095 11.1996 22.4914 10.9321 22.5089C10.6646 22.5265 10.3968 22.479 10.1508 22.3705C7.8358 21.4928 5.52083 20.5863 3.21994 19.6943C3.02999 19.6271 2.86271 19.5061 2.73772 19.3456C2.61273 19.1851 2.5352 18.9916 2.51414 18.7878C2.50711 18.6824 2.50711 18.5766 2.51414 18.4712V3.69426C2.54639 3.41419 2.66943 3.1531 2.86377 2.9524C3.05811 2.7517 3.31264 2.6229 3.58697 2.58636H14.2586C15.0614 2.59744 15.8285 2.92646 16.3976 3.50382C16.9667 4.08119 17.293 4.8616 17.3076 5.67988C17.3076 6.09715 17.3076 6.51439 17.3076 6.91727C17.3133 7.05501 17.2916 7.19254 17.2438 7.32151C17.196 7.45048 17.1231 7.56826 17.0295 7.66774C16.9358 7.76722 16.8234 7.84636 16.699 7.90038C16.5745 7.95439 16.4407 7.98217 16.3054 7.98205C16.1707 7.99811 16.0341 7.98529 15.9045 7.94446C15.7749 7.90363 15.6551 7.83569 15.5528 7.74493C15.4505 7.65418 15.368 7.54263 15.3104 7.41745C15.2528 7.29228 15.2215 7.15622 15.2185 7.018C15.2185 6.6439 15.2185 6.2554 15.2185 5.8813C15.2396 5.72699 15.2252 5.56981 15.1767 5.42208C15.1281 5.27436 15.0466 5.14014 14.9385 5.02997C14.8304 4.9198 14.6988 4.8367 14.5538 4.78719C14.4089 4.73767 14.2547 4.72311 14.1033 4.74464H9.75561C9.69583 4.7258 9.63186 4.7258 9.57209 4.74464C10.0097 4.9173 10.4473 5.11872 10.899 5.2626C11.5694 5.47991 12.151 5.91608 12.5541 6.50377C12.9571 7.09145 13.1593 7.798 13.1293 8.51442C13.1293 11.3921 13.1293 14.3705 13.1293 17.2914V17.6655C13.6009 17.6722 14.0724 17.6482 14.5409 17.5935C14.7451 17.5504 14.9284 17.4365 15.0596 17.2713C15.1908 17.1061 15.2618 16.8996 15.2608 16.6871C15.2608 16.2842 15.2608 15.8813 15.2608 15.4784C15.2544 15.3043 15.2912 15.1313 15.3678 14.9754C15.4445 14.8196 15.5585 14.6861 15.6992 14.5871C15.8399 14.4881 16.003 14.4269 16.1731 14.4091C16.3432 14.3914 16.5149 14.4177 16.6723 14.4856C16.8267 14.5263 16.9651 14.6143 17.0687 14.7379C17.1722 14.8615 17.2359 15.0145 17.2511 15.1763C17.2823 15.8925 17.2492 16.6101 17.1523 17.3202C17.0196 18.0101 16.6583 18.6325 16.1289 19.0831C15.5994 19.5337 14.9341 19.785 14.2445 19.795L12.974 19.7662Z" fill="#737791"/>
<path d="M17.8581 9.98199L17.5475 9.7086C17.3614 9.51726 17.2569 9.25868 17.2569 8.98918C17.2569 8.71968 17.3614 8.46109 17.5475 8.26976C17.6348 8.1692 17.7408 8.08744 17.8594 8.02926C17.9781 7.97108 18.1069 7.93765 18.2384 7.93094C18.3699 7.92424 18.5014 7.94439 18.6252 7.99022C18.7489 8.03605 18.8625 8.10665 18.9591 8.19783C19.6932 8.91725 20.3707 9.63668 21.1047 10.3993C21.3098 10.6096 21.425 10.8941 21.425 11.1906C21.425 11.4872 21.3098 11.7717 21.1047 11.982C20.3989 12.6439 19.6932 13.4209 19.0438 14.054C18.9 14.2127 18.7111 14.3216 18.5035 14.3654C18.296 14.4093 18.0802 14.3859 17.8863 14.2985C17.6875 14.2194 17.5187 14.0776 17.4044 13.8939C17.2902 13.7101 17.2365 13.494 17.2511 13.277C17.3082 13.0304 17.4087 12.7964 17.5475 12.5863C17.5475 12.4712 17.7451 12.3992 17.8581 12.3129H15.2043C15.0299 12.3257 14.8553 12.2932 14.6967 12.2182C14.5381 12.1433 14.4009 12.0285 14.2978 11.8846C14.1948 11.7407 14.1294 11.5725 14.1077 11.3957C14.086 11.2189 14.1087 11.0394 14.1738 10.8741C14.2408 10.6504 14.3811 10.4569 14.5713 10.326C14.7614 10.195 14.9898 10.1346 15.2184 10.1546H17.8581V9.98199Z" fill="#737791"/>
</g>
<defs>
<clipPath id="clip0_6420_2540">
<rect width="19" height="20" fill="white" transform="translate(2.5 2.5)"/>
</clipPath>
</defs>
</svg>
