<svg width="24" height="25" viewBox="0 0 24 25" fill="none" xmlns="http://www.w3.org/2000/svg">
<g clip-path="url(#clip0_6420_2534)">
<path d="M19.7375 8.182C20.0045 8.28458 20.2657 8.40173 20.5201 8.5329C20.9741 8.77188 21.3526 9.13393 21.6129 9.5781C21.8731 10.0223 22.0048 10.5309 21.9929 11.0464C21.9929 13.3737 21.9929 15.7081 21.9929 18.0426C21.9878 18.7613 21.7228 19.4535 21.2474 19.9899C20.7721 20.5262 20.119 20.8701 19.4102 20.9571C19.1745 20.9902 18.9366 21.0045 18.6987 21H4.69654C4.38025 21.0041 4.0647 20.968 3.75737 20.8926C3.30136 20.7729 2.89297 20.5149 2.58752 20.1537C2.28207 19.7925 2.09435 19.3455 2.0498 18.8733C1.99993 18.5752 1.97849 18.2731 1.98577 17.971C1.98577 14.2903 1.98577 10.6072 1.98577 6.92169C1.99814 6.21144 2.26595 5.52979 2.73954 5.0031C3.21314 4.4764 3.8604 4.14038 4.56136 4.05733C4.77088 4.02463 4.98256 4.00787 5.19459 4.0072H17.0551C17.6599 3.98404 18.2536 4.17477 18.7332 4.54627C19.2128 4.91778 19.548 5.44658 19.6805 6.04089C19.7326 6.27599 19.7588 6.51612 19.7588 6.75698C19.7446 7.22244 19.7375 7.70222 19.7375 8.182ZM12.0036 18.9234C13.1534 18.9215 14.2555 18.4604 15.0679 17.6414C15.8802 16.8224 16.3365 15.7125 16.3365 14.5552C16.3309 13.4016 15.8736 12.2967 15.0638 11.4803C14.2539 10.6638 13.1569 10.2018 12.0107 10.1942C10.862 10.198 9.76131 10.6585 8.9484 11.4753C8.13549 12.2921 7.67619 13.3991 7.67057 14.5552C7.67245 15.7112 8.12957 16.8194 8.94176 17.6368C9.75394 18.4543 10.855 18.9143 12.0036 18.9162V18.9234ZM18.1437 8.11755V6.7713C18.1649 6.61583 18.1501 6.45754 18.1004 6.30879C18.0507 6.16005 17.9675 6.02489 17.8572 5.91392C17.7469 5.80296 17.6127 5.7192 17.4649 5.66917C17.3171 5.61914 17.1598 5.60422 17.0053 5.62557H5.19459C5.03708 5.62533 4.87988 5.63971 4.725 5.66853C4.44702 5.71073 4.19007 5.84233 3.99258 6.04369C3.79508 6.24505 3.66764 6.50533 3.62931 6.78563C3.62057 7.07762 3.71522 7.36324 3.89638 7.59148C4.07753 7.81971 4.3334 7.97571 4.61828 8.03162C4.86737 8.09279 5.1232 8.12166 5.37957 8.11755H18.1864H18.1437Z" fill="#737791"/>
<path d="M11.2636 14.5695C11.2636 13.9608 11.2636 13.345 11.2636 12.7363C11.2526 12.6359 11.2628 12.5342 11.2935 12.438C11.3243 12.3418 11.375 12.2533 11.4422 12.1782C11.5094 12.1032 11.5916 12.0433 11.6834 12.0025C11.7753 11.9616 11.8747 11.9409 11.9751 11.9415C12.0808 11.9321 12.1873 11.9467 12.2867 11.9841C12.3861 12.0215 12.476 12.0808 12.5497 12.1577C12.6233 12.2346 12.679 12.3271 12.7125 12.4285C12.7461 12.5299 12.7567 12.6375 12.7435 12.7435C12.7435 13.2734 12.7435 13.8033 12.7435 14.326V14.6483L13.3056 14.0826C13.3708 14.0057 13.4509 13.9428 13.5408 13.8978C13.6308 13.8527 13.7288 13.8264 13.8291 13.8204C13.9294 13.8144 14.0299 13.8288 14.1246 13.8628C14.2192 13.8968 14.3061 13.9496 14.3799 14.0181C14.4544 14.0891 14.5138 14.1745 14.5543 14.2693C14.5949 14.3641 14.6158 14.4663 14.6158 14.5695C14.6158 14.6727 14.5949 14.7749 14.5543 14.8697C14.5138 14.9645 14.4544 15.05 14.3799 15.1209C13.7823 15.7224 13.1846 16.3311 12.5799 16.9326C12.5131 17.0125 12.4298 17.0767 12.3357 17.1207C12.2417 17.1647 12.1393 17.1875 12.0356 17.1875C11.9319 17.1875 11.8294 17.1647 11.7354 17.1207C11.6414 17.0767 11.5581 17.0125 11.4913 16.9326C10.8865 16.3239 10.2746 15.7153 9.67698 15.0994C9.60362 15.0323 9.54499 14.9505 9.50487 14.8593C9.46476 14.768 9.44405 14.6693 9.44405 14.5695C9.44405 14.4697 9.46476 14.371 9.50487 14.2798C9.54499 14.1885 9.60362 14.1067 9.67698 14.0396C9.74367 13.9658 9.82495 13.9068 9.91562 13.8664C10.0063 13.826 10.1043 13.8052 10.2035 13.8052C10.3026 13.8052 10.4007 13.826 10.4913 13.8664C10.582 13.9068 10.6633 13.9658 10.73 14.0396C10.915 14.2186 11.0857 14.4048 11.2636 14.591V14.5695Z" fill="#737791"/>
</g>
<defs>
<clipPath id="clip0_6420_2534">
<rect width="20" height="17" fill="white" transform="translate(2 4)"/>
</clipPath>
</defs>
</svg>
